<svg xmlns="http://www.w3.org/2000/svg" width="130" height="28" viewBox="0 0 130 28" fill="none">
  <!-- First SVG Content -->
  <g transform="translate(0, 4)">
    <path d="M3.95126 3.42899C4.52893 2.45851 5.29145 1.70754 6.23883 1.17608C7.20931 0.621519 8.35309 0.344238 9.67018 0.344238L9.60317 3.81773H8.4794C6.93124 3.81773 5.93844 4.82695 5.1297 5.61258C4.34407 6.39821 3.95126 7.76151 3.95126 9.70247V19.7539H0V0.65618H3.95126V3.42899Z" fill="white"></path>
    <path d="M100.345 9.53206C100.345 10.2484 100.299 10.8954 100.207 11.473H85.6148C85.7303 12.9981 86.2964 14.2227 87.3131 15.147C88.3298 16.0713 89.5776 16.5334 91.0564 16.5334C93.1823 16.5334 94.6842 15.6438 95.5623 13.8646H99.8254C99.2478 15.6207 98.1964 17.0649 96.6714 18.1971C95.1694 19.3062 93.2978 19.8608 91.0564 19.8608C89.231 19.8608 87.5904 19.4564 86.1347 18.6477C84.7021 17.8158 83.5698 16.6605 82.738 15.1817C81.9293 13.6797 81.5249 11.9467 81.5249 9.98264C81.5249 8.01856 81.9177 6.29711 82.7033 4.81828C83.5121 3.31634 84.6328 2.161 86.0654 1.35226C87.5211 0.543529 89.1848 0.13916 91.0564 0.13916C92.8588 0.13916 94.4647 0.531975 95.8742 1.3176C97.2837 2.10324 98.3813 3.21236 99.1669 4.64498C99.9525 6.05449 100.345 7.68352 100.345 9.53206ZM96.2208 8.28429C96.1977 6.82857 95.6778 5.66168 94.6611 4.78362C93.6444 3.90556 92.3851 3.46653 90.8831 3.46653C89.5198 3.46653 88.3529 3.90556 87.3825 4.78362C86.412 5.63857 85.8343 6.80546 85.6495 8.28429H96.2208Z" fill="white"></path>
    <path d="M71.9544 16.1103L77.3613 0.547852H81.5552L74.2766 19.6456H69.5628L62.3188 0.547852H66.5474L71.9544 16.1103Z" fill="white"></path>
    <path d="M52.4739 19.8608C50.6716 19.8608 49.0426 19.4564 47.5868 18.6477C46.1311 17.8158 44.9873 16.6605 44.1555 15.1817C43.3236 13.6797 42.9077 11.9467 42.9077 9.98264C42.9077 8.04167 43.3352 6.32022 44.1901 4.81828C45.0451 3.31634 46.212 2.161 47.6908 1.35226C49.1696 0.543529 50.8218 0.13916 52.6472 0.13916C54.4726 0.13916 56.1248 0.543529 57.6036 1.35226C59.0825 2.161 60.2493 3.31634 61.1043 4.81828C61.9592 6.32022 62.3867 8.04167 62.3867 9.98264C62.3867 11.9236 61.9477 13.6451 61.0696 15.147C60.1916 16.6489 58.99 17.8158 57.465 18.6477C55.963 19.4564 54.2994 19.8608 52.4739 19.8608ZM52.4739 16.4294C53.4906 16.4294 54.438 16.1868 55.3161 15.7016C56.2172 15.2163 56.9451 14.4885 57.4996 13.518C58.0542 12.5475 58.3315 11.369 58.3315 9.98264C58.3315 8.59623 58.0658 7.42934 57.5343 6.48197C57.0028 5.51148 56.2981 4.78362 55.42 4.29838C54.542 3.81313 53.5946 3.57051 52.5779 3.57051C51.5612 3.57051 50.6138 3.81313 49.7358 4.29838C48.8808 4.78362 48.1992 5.51148 47.6908 6.48197C47.1825 7.42934 46.9283 8.59623 46.9283 9.98264C46.9283 12.0391 47.4482 13.6335 48.488 14.7657C49.5509 15.8749 50.8796 16.4294 52.4739 16.4294Z" fill="white"></path>
    <rect x="9.60303" y="0.344238" width="10.2161" height="3.47349" fill="white"></rect>
    <path fill-rule="evenodd" clip-rule="evenodd" d="M19.8193 3.80577C21.0035 3.92132 21.9605 4.37354 22.6902 5.16243C23.5452 6.06359 23.9726 7.36913 23.9726 9.07903V19.7544H27.8892V9.07903C27.8892 7.36913 28.3167 6.06359 29.1717 5.16243C30.0497 4.23816 31.2282 3.77603 32.707 3.77603C34.1858 3.77603 35.3527 4.23816 36.2077 5.16243C37.0626 6.06359 37.4901 7.36913 37.4901 9.07903V19.7544H41.4067V8.48981C41.4067 6.7568 41.0601 5.27797 40.3669 4.05331C39.6968 2.82865 38.761 1.90438 37.5594 1.28049C36.381 0.656613 35.0408 0.344672 33.5388 0.344672C32.1293 0.344672 30.8122 0.691273 29.5876 1.38447C28.3629 2.05457 27.4618 2.96729 26.8841 4.12263C26.2371 2.89797 25.3128 1.96214 24.1113 1.31516C22.9097 0.668166 21.5464 0.344672 20.0214 0.344672C19.9538 0.344672 19.8864 0.345455 19.8193 0.347021V3.80577Z" fill="white"></path>
    <rect width="11.2378" height="3.47349" transform="matrix(-1 0 0 1 19.8193 8.51758)" fill="white"></rect>
    <rect width="11.2378" height="3.47349" transform="matrix(-1 0 0 1 19.8193 16.2808)" fill="white"></rect>
  </g>

  <!-- Second SVG Content -->
  <g transform="translate(102, 0)">
    <path fill-rule="evenodd" clip-rule="evenodd" d="M14.1621 28C21.8941 28 28.1621 21.732 28.1621 14C28.1621 6.26801 21.8941 0 14.1621 0C6.43012 0 0.162109 6.26801 0.162109 14C0.162109 21.732 6.43012 28 14.1621 28ZM24.8674 14C24.8674 19.9124 20.0745 24.7053 14.1621 24.7053C8.24975 24.7053 3.45683 19.9124 3.45683 14C3.45683 8.08764 8.24975 3.29472 14.1621 3.29472C20.0745 3.29472 24.8674 8.08764 24.8674 14Z" fill="white"></path>
    <path d="M6.86894 10.2413L6.56934 10.7572L10.1748 12.851L10.4744 12.335C10.7519 11.8571 11.1208 11.4386 11.5601 11.1032C11.9994 10.7679 12.5005 10.5224 13.0346 10.3807C13.5688 10.239 14.1257 10.204 14.6734 10.2775C15.2211 10.351 15.749 10.5317 16.2269 10.8092C16.7048 11.0867 17.1234 11.4557 17.4587 11.895C17.794 12.3343 18.0396 12.8353 18.1812 13.3695C18.3229 13.9037 18.358 14.4605 18.2845 15.0082C18.211 15.556 18.0303 16.0839 17.7528 16.5618L17.4532 17.0777L21.0585 19.1714L21.3596 18.653L21.3598 18.6527C21.7847 17.9205 22.0954 17.1293 22.2825 16.3066C22.3383 16.0612 22.3831 15.8131 22.4167 15.5629C22.5631 14.4725 22.4932 13.364 22.2112 12.3006C21.9291 11.2372 21.4404 10.2398 20.7728 9.36525C20.1053 8.49074 19.2721 7.75628 18.3207 7.20379C17.3693 6.65131 16.3184 6.29162 15.228 6.14526C14.1376 5.99891 13.0291 6.06875 11.9657 6.35081C10.9023 6.63287 9.90491 7.12162 9.0304 7.78915C8.82972 7.94233 8.63641 8.10424 8.45099 8.2743C7.82839 8.84532 7.29464 9.50824 6.86894 10.2413Z" fill="url(#paint0_linear_349_247)"></path>
    <path d="M28.6237 25.5372L14.9766 13.6821L12.3574 16.6114L22.4549 25.2615L28.6237 25.5372Z" fill="white"></path>
    <defs>
      <linearGradient id="paint0_linear_349_247" x1="20.49" y1="16.7149" x2="6.36412" y2="10.1996" gradientUnits="userSpaceOnUse">
        <stop stop-color="#FE784E"></stop>
        <stop offset="1" stop-color="#491080"></stop>
      </linearGradient>
    </defs>
  </g>
</svg>
